# xmcd
#
# Track frame offsets:
#	150
#	16179
#	28882
#	40715
#	60546
#	72551
#	81269
#	93576
#	109502
#
# Disc length: 1571 seconds
# Revision: 0
# Processed by: cddbd v1.5.2PL0 Copyright (c) Steve Scherf et al.
# Submitted via: dBpowerAMP V12.0
#
DISCID=6f062109
DTITLE=Bobby Dielman - What Were You Thinking?
DYEAR=2013
DGENRE=Blues-Rock
TTITLE0=What Were You Thinking?
TTITLE1=When the Begging Begins
TTITLE2=Tell Me Tell Me Tell Me
TTITLE3=You Lost Your Good Thing
TTITLE4=Old Time's Sake
TTITLE5=Ain't No Way
TTITLE6=Just a Feeling
TTITLE7=Going Home to See My Baby
TTITLE8=Do You Know?
EXTD=
EXTT0=
EXTT1=
EXTT2=
EXTT3=
EXTT4=
EXTT5=
EXTT6=
EXTT7=
EXTT8=
PLAYORDER=
